<svg width="16" height="16" viewBox="0 0 16 16" fill="none" xmlns="http://www.w3.org/2000/svg"><path fill-rule="evenodd" clip-rule="evenodd" d="M4.314 1.334l.018.002c.349.029.652.202.93.473.525.514 1.655 2.013 1.74 2.422.095.455-.006.75-.307 1.274l-.073.129c-.138.252-.159.356-.116.475.657 1.609 1.778 2.73 3.368 3.379.15.055.264.023.582-.16l.166-.093c.448-.246.731-.323 1.15-.236.406.085 1.907 1.216 2.42 1.742.27.276.444.58.474.952.032.905-1.072 2.18-1.745 2.562-.766.548-1.738.539-2.828.032-2.85-1.186-7.21-5.518-8.371-8.364l-.07-.16c-.44-1.054-.431-1.965.074-2.651.461-.764 1.705-1.818 2.588-1.778zm-.054.975l-.059.003c-.453.06-1.361.843-1.664 1.34l-.052.078c-.26.425-.23 1.008.132 1.806l.07.163c1.17 2.626 5.222 6.622 7.799 7.695l.142.063c.745.316 1.31.302 1.766-.022l.034-.021c.142-.099.468-.395.719-.685.352-.407.552-.78.546-.978-.007-.085-.073-.2-.199-.329-.381-.39-1.769-1.436-1.922-1.468-.145-.03-.264.01-.59.197l-.163.092c-.48.26-.818.329-1.295.155C7.673 9.643 6.359 8.33 5.596 6.46c-.181-.5-.084-.854.23-1.402l.076-.131c.142-.258.173-.368.146-.498-.032-.154-1.077-1.54-1.468-1.922-.13-.127-.244-.192-.329-.2l.009.002z" fill="#E3E3E3"/></svg>