<svg width="22" height="22" viewBox="0 0 22 22" fill="none" xmlns="http://www.w3.org/2000/svg"><path d="M7.937.038c-1.635.183-3.38.939-4.7 2.035C1.471 3.537.28 5.741.038 7.997a13.52 13.52 0 000 2.039c.168 1.566.799 3.136 1.796 4.47.345.463 1.232 1.35 1.694 1.695 1.328.99 2.729 1.566 4.335 1.783.58.077 1.723.077 2.31 0a9.156 9.156 0 004.268-1.735l.308-.231 2.993 2.99C19.389 20.653 20.753 22 20.772 22 20.819 22 22 20.819 22 20.771c0-.022-1.346-1.382-2.992-3.03l-2.989-2.992.231-.308a9.16 9.16 0 001.735-4.27c.077-.583.077-1.73 0-2.31a9.14 9.14 0 00-1.786-4.335c-.345-.462-1.229-1.346-1.69-1.691C13.176.837 11.603.203 10.038.034 9.616-.014 8.354-.01 7.936.038zm1.577 1.716a7.307 7.307 0 016.399 4.933c.774 2.256.374 4.75-1.075 6.69-1.47 1.97-3.92 3.092-6.325 2.901-4.378-.344-7.466-4.368-6.641-8.648.495-2.557 2.402-4.713 4.892-5.527.718-.235 1.147-.312 2.163-.378.04-.004.305.01.587.03z" fill="#E3E3E3"/></svg>