<svg width="15" height="15" viewBox="0 0 15 15" fill="none" xmlns="http://www.w3.org/2000/svg"><path d="M13.682 2.362H1.318A1.32 1.32 0 000 3.68v7.64a1.32 1.32 0 001.318 1.318h12.364A1.32 1.32 0 0015 11.32V3.68a1.32 1.32 0 00-1.318-1.318zm-.172.879l-.176.146-5.31 4.422a.817.817 0 01-1.047 0l-5.31-4.422-.177-.146h12.02zM.879 3.875l4.327 3.603-4.327 2.88V3.875zm12.803 7.884H1.318a.44.44 0 01-.43-.351L5.91 8.065l.504.42a1.693 1.693 0 002.17 0l.505-.42 5.022 3.343a.44.44 0 01-.43.351zm.44-1.401l-4.328-2.88 4.327-3.603v6.483z" fill="#E3E3E3"/></svg>