<svg xmlns="http://www.w3.org/2000/svg" viewBox="0 0 25 25" width="30" height="30"><path d="M12.41 13.471h.166c1.517-.026 2.744-.559 3.65-1.579 1.993-2.247 1.662-6.099 1.626-6.466-.129-2.759-1.434-4.08-2.511-4.696-.803-.461-1.74-.709-2.786-.73h-.088c-.575 0-1.703.093-2.785.709-1.088.616-2.413 1.936-2.542 4.717-.036.368-.368 4.219 1.626 6.466.9 1.02 2.127 1.553 3.644 1.579zM8.522 5.555c0-.016.005-.031.005-.041.171-3.712 2.806-4.111 3.935-4.111h.062c1.398.031 3.774.601 3.935 4.111a.1.1 0 00.005.041c.005.036.368 3.557-1.279 5.41-.652.735-1.522 1.098-2.666 1.108h-.052c-1.139-.01-2.014-.373-2.661-1.108-1.641-1.843-1.289-5.379-1.284-5.41z" fill="#F5F5F5"></path><path d="M23.131 19.859v-.016c0-.041-.005-.083-.005-.129-.031-1.025-.098-3.422-2.345-4.188-.016-.005-.036-.01-.052-.016-2.335-.595-4.276-1.941-4.297-1.957a.697.697 0 00-.973.171.697.697 0 00.171.973c.088.062 2.148 1.496 4.727 2.159 1.206.43 1.341 1.719 1.377 2.899 0 .047 0 .088.005.129.005.466-.026 1.186-.109 1.6-.839.476-4.126 2.123-9.127 2.123-4.98 0-8.288-1.651-9.132-2.128-.083-.414-.119-1.134-.109-1.6 0-.041.005-.083.005-.129.036-1.18.171-2.469 1.377-2.899 2.578-.663 4.639-2.102 4.727-2.159a.698.698 0 10-.802-1.144c-.021.016-1.952 1.362-4.297 1.957a.406.406 0 00-.052.016c-2.247.771-2.314 3.168-2.345 4.188 0 .047 0 .088-.005.129v.016c-.005.269-.01 1.651.264 2.345a.666.666 0 00.269.326C2.558 22.629 6.28 25 12.508 25s9.95-2.376 10.106-2.475a.698.698 0 00.269-.326c.259-.688.254-2.071.248-2.34z" fill="#F5F5F5"></path></svg>