<svg width="22" height="22" viewBox="0 0 22 22" fill="none" xmlns="http://www.w3.org/2000/svg"><path d="M18.577 16.808H7.113l-.243-.993h12.993l2.104-9.167L4.802 4.59 4.015 0H.033v1.734h2.52l.452 2.64-.036-.004L5.04 15.815h.044l.252 1.031a2.598 2.598 0 00-2.168 2.558A2.599 2.599 0 005.765 22a2.599 2.599 0 002.596-2.596 2.57 2.57 0 00-.15-.862h7.92a2.58 2.58 0 00-.15.862A2.598 2.598 0 0018.577 22a2.599 2.599 0 002.595-2.596 2.598 2.598 0 00-2.595-2.596zM5.107 6.373L19.845 8.14l-1.364 5.941H6.49l-1.146-6.33-.236-1.378zm.659 13.892a.863.863 0 010-1.723.863.863 0 010 1.723zm12.811 0a.863.863 0 010-1.723.863.863 0 010 1.724z" fill="#E3E3E3"/></svg>