<svg width="22" height="22" viewBox="0 0 22 22" fill="none" xmlns="http://www.w3.org/2000/svg"><g clip-path="url(#clip0)"><path d="M10.957.021c-3.493 0-6.334 2.853-6.334 6.36a6.364 6.364 0 002.75 5.24 10.909 10.909 0 00-4.164 2.622A10.95 10.95 0 000 22.021h1.712c0-5.117 4.147-9.28 9.245-9.28 3.493 0 6.335-2.854 6.335-6.36 0-3.507-2.842-6.36-6.335-6.36zm0 11c-2.549 0-4.622-2.081-4.622-4.64 0-2.559 2.073-4.64 4.622-4.64s4.623 2.081 4.623 4.64c0 2.559-2.074 4.64-4.623 4.64zm7.405 5.672v-3.609H16.65v3.61h-3.596v1.718h3.596v3.61h1.712v-3.61h3.595v-1.719h-3.595z" fill="#E3E3E3"/></g><defs><clipPath id="clip0"><path fill="#fff" d="M0 0h22v22H0z"/></clipPath></defs></svg>